name rise35.5848peak51.9257fall54.8793.mot
datacolumns 19
datarows 32
range 22.71658000000000 22.76824700000000
endheader
time	ground_force1_vx	ground_force1_vy	ground_force1_vz	ground_force1_px	ground_force1_py	ground_force1_pz	ground_force2_vx	ground_force2_vy	ground_force2_vz	ground_force2_px	ground_force2_py	ground_force2_pz	ground_torque1_x	ground_torque1_y	ground_torque1_z	ground_torque2_x	ground_torque2_y	ground_torque2_z	
22.71658000000000	-41.91710900000000	794.93693900000005	47.87981400000000	0.12187000000000	0.00000000000000	0.10367700000000	-3.96021200000000	15.67594700000000	5.21832600000000	0.00000000000000	0.00000000000000	0.00000000000000	0.00000000000000	19.85181900000000	0.00000000000000	0.00000000000000	1.73025800000000	0.00000000000000	
22.71824900000000	-42.45357300000000	793.41947200000004	47.78993900000000	0.12101600000000	0.00000000000000	0.10360100000000	-4.98002800000000	20.72525200000000	6.72701500000000	0.00000000000000	0.00000000000000	0.00000000000000	0.00000000000000	19.82281100000000	0.00000000000000	0.00000000000000	2.24614300000000	0.00000000000000	
22.71991200000000	-43.00568400000000	791.81632800000000	47.68599900000000	0.12016300000000	0.00000000000000	0.10352200000000	-6.00801900000000	26.17695400000000	8.30447700000000	0.35153500000000	0.00000000000000	-0.06563200000000	0.00000000000000	19.79445400000000	0.00000000000000	0.00000000000000	5.31523600000000	0.00000000000000	
22.72157400000000	-43.57390900000000	790.12614900000005	47.56769700000000	0.11931000000000	0.00000000000000	0.10344000000000	-7.00466300000000	31.90919300000000	9.90306900000000	0.35548800000000	0.00000000000000	-0.06650200000000	0.00000000000000	19.76686700000000	0.00000000000000	0.00000000000000	6.40172700000000	0.00000000000000	
22.72325200000000	-44.15866600000000	788.34754199999998	47.43475000000000	0.11845700000000	0.00000000000000	0.10335700000000	-7.93163600000000	37.79544700000000	11.47496600000000	0.35906700000000	0.00000000000000	-0.06732900000000	0.00000000000000	19.74016500000000	0.00000000000000	0.00000000000000	7.48741100000000	0.00000000000000	
22.72490900000000	-44.76032300000000	786.47908299999995	47.28688800000000	0.11760300000000	0.00000000000000	0.10327100000000	-8.75461300000000	43.71483900000000	12.97574800000000	0.36231500000000	0.00000000000000	-0.06812000000000	0.00000000000000	19.71445500000000	0.00000000000000	0.00000000000000	8.54255900000000	0.00000000000000	
22.72657500000000	-45.37918600000000	784.51931400000001	47.12385500000000	0.11674900000000	0.00000000000000	0.10318200000000	-9.44553900000000	49.56112100000000	14.36741300000000	0.36526700000000	0.00000000000000	-0.06887800000000	0.00000000000000	19.68983800000000	0.00000000000000	0.00000000000000	9.54109200000000	0.00000000000000	
22.72824800000000	-46.01550500000000	782.46674099999996	46.94541000000000	0.11589300000000	0.00000000000000	0.10309100000000	-9.98412600000000	55.24940800000000	15.62052600000000	0.36795400000000	0.00000000000000	-0.06960800000000	0.00000000000000	19.66640700000000	0.00000000000000	0.00000000000000	10.46212500000000	0.00000000000000	
22.72991300000000	-46.66946100000000	780.31983500000001	46.75132700000000	0.11503700000000	0.00000000000000	0.10299800000000	-10.35852300000000	60.72021400000000	16.71536500000000	0.37040400000000	0.00000000000000	-0.07031200000000	0.00000000000000	19.64424800000000	0.00000000000000	0.00000000000000	11.29088500000000	0.00000000000000	
22.73157600000000	-47.34116900000000	778.07702800000004	46.54140000000000	0.11417800000000	0.00000000000000	0.10290200000000	-10.56518500000000	65.94077000000000	17.64210000000000	0.37263900000000	0.00000000000000	-0.07099400000000	0.00000000000000	19.62343800000000	0.00000000000000	0.00000000000000	12.01897800000000	0.00000000000000	
22.73325500000000	-48.03067200000000	775.73671700000000	46.31543900000000	0.11331900000000	0.00000000000000	0.10280400000000	-10.60808900000000	70.90393800000000	18.40013400000000	0.37468000000000	0.00000000000000	-0.07165500000000	0.00000000000000	19.60404400000000	0.00000000000000	0.00000000000000	12.64408500000000	0.00000000000000	
22.73490600000000	-48.73793600000000	773.29726000000005	46.07327400000000	0.11245800000000	0.00000000000000	0.10270400000000	-10.49745900000000	75.62518400000000	18.99678500000000	0.37654500000000	0.00000000000000	-0.07229900000000	0.00000000000000	19.58612200000000	0.00000000000000	0.00000000000000	13.16921200000000	0.00000000000000	
22.73657600000000	-49.46284700000000	770.75698299999999	45.81475400000000	0.11159400000000	0.00000000000000	0.10260100000000	-10.24819100000000	80.13822000000000	19.44556000000000	0.37825000000000	0.00000000000000	-0.07292500000000	0.00000000000000	19.56971900000000	0.00000000000000	0.00000000000000	13.60162500000000	0.00000000000000	
22.73825200000000	-50.20521100000000	768.11417300000005	45.53974800000000	0.11072900000000	0.00000000000000	0.10249600000000	-9.87816300000000	84.48988600000000	19.76420300000000	0.37981000000000	0.00000000000000	-0.07353600000000	0.00000000000000	19.55487000000000	0.00000000000000	0.00000000000000	13.95161600000000	0.00000000000000	
22.73991200000000	-50.96474600000000	765.36708699999997	45.24814800000000	0.10986200000000	0.00000000000000	0.10238900000000	-9.40658500000000	88.73484200000000	19.97274100000000	0.38123800000000	0.00000000000000	-0.07413300000000	0.00000000000000	19.54159600000000	0.00000000000000	0.00000000000000	14.23123500000000	0.00000000000000	
22.74157300000000	-51.74108500000000	762.51394800000003	44.93986700000000	0.10899200000000	0.00000000000000	0.10228000000000	-8.85252300000000	92.93052500000000	20.09167900000000	0.38254300000000	0.00000000000000	-0.07471600000000	0.00000000000000	19.52990700000000	0.00000000000000	0.00000000000000	14.45310500000000	0.00000000000000	
22.74325600000000	-52.53376700000000	759.55295300000000	44.61484100000000	0.10812000000000	0.00000000000000	0.10216900000000	-8.23367800000000	97.13273400000000	20.14045900000000	0.38373800000000	0.00000000000000	-0.07528800000000	0.00000000000000	19.51979900000000	0.00000000000000	0.00000000000000	14.62938400000000	0.00000000000000	
22.74491200000000	-53.34224000000000	756.48227299999996	44.27303000000000	0.10724600000000	0.00000000000000	0.10205600000000	-7.56547400000000	101.39207500000001	20.13626600000000	0.38483000000000	0.00000000000000	-0.07584800000000	0.00000000000000	19.51125300000000	0.00000000000000	0.00000000000000	14.77095500000000	0.00000000000000	
22.74657600000000	-54.16585400000000	753.30005700000004	43.91441700000000	0.10636900000000	0.00000000000000	0.10194000000000	-6.86047300000000	105.75139700000000	20.09320900000000	0.38582800000000	0.00000000000000	-0.07639700000000	0.00000000000000	19.50423700000000	0.00000000000000	0.00000000000000	14.88684200000000	0.00000000000000	
22.74825300000000	-55.00386400000000	750.00443499999994	43.53900900000000	0.10549100000000	0.00000000000000	0.10182300000000	-6.12810000000000	110.24423000000000	20.02187400000000	0.38673900000000	0.00000000000000	-0.07693500000000	0.00000000000000	19.49870200000000	0.00000000000000	0.00000000000000	14.98388500000000	0.00000000000000	
22.74990900000000	-55.85542600000000	746.59352600000000	43.14684000000000	0.10461000000000	0.00000000000000	0.10170300000000	-5.37465600000000	114.89417600000000	19.92921700000000	0.38757000000000	0.00000000000000	-0.07746400000000	0.00000000000000	19.49458400000000	0.00000000000000	0.00000000000000	15.06662600000000	0.00000000000000	
22.75157400000000	-56.71959600000000	743.06543899999997	42.73796900000000	0.10372700000000	0.00000000000000	0.10158200000000	-4.60354400000000	119.71511300000000	19.81874600000000	0.38832600000000	0.00000000000000	-0.07798300000000	0.00000000000000	19.49180500000000	0.00000000000000	0.00000000000000	15.13739600000000	0.00000000000000	
22.75323800000000	-57.59533000000000	739.41828199999998	42.31247900000000	0.10284100000000	0.00000000000000	0.10145900000000	-3.81567600000000	124.71205900000000	19.69092300000000	0.38901400000000	0.00000000000000	-0.07849300000000	0.00000000000000	19.49026600000000	0.00000000000000	0.00000000000000	15.19655400000000	0.00000000000000	
22.75491100000000	-58.48148200000000	735.65016300000002	41.87048100000000	0.10195400000000	0.00000000000000	0.10133400000000	-3.00998300000000	129.88249999999999	19.54371300000000	0.38963700000000	0.00000000000000	-0.07899400000000	0.00000000000000	19.48985600000000	0.00000000000000	0.00000000000000	15.24282300000000	0.00000000000000	
22.75657100000000	-59.37680600000000	731.75920199999996	41.41211100000000	0.10106500000000	0.00000000000000	0.10120800000000	-2.18396900000000	135.21800600000000	19.37322500000000	0.39020000000000	0.00000000000000	-0.07948600000000	0.00000000000000	19.49044400000000	0.00000000000000	0.00000000000000	15.27369400000000	0.00000000000000	
22.75825200000000	-60.27995600000000	727.74353299999996	40.93753400000000	0.10017400000000	0.00000000000000	0.10107900000000	-1.33427800000000	140.70595100000000	19.17436400000000	0.39070700000000	0.00000000000000	-0.07996900000000	0.00000000000000	19.49188200000000	0.00000000000000	0.00000000000000	15.28584500000000	0.00000000000000	
22.75990700000000	-61.18948500000000	723.60131300000000	40.44694000000000	0.09928100000000	0.00000000000000	0.10095000000000	-0.45720400000000	146.33120299999999	18.94145400000000	0.39116100000000	0.00000000000000	-0.08044400000000	0.00000000000000	19.49400700000000	0.00000000000000	0.00000000000000	15.27554800000000	0.00000000000000	
22.76157700000000	-62.10385100000000	719.33072700000002	39.94054700000000	0.09838700000000	0.00000000000000	0.10081800000000	0.45086100000000	152.07765100000000	18.66879100000000	0.39156600000000	0.00000000000000	-0.08091100000000	0.00000000000000	19.49663700000000	0.00000000000000	0.00000000000000	15.23902600000000	0.00000000000000	
22.76325500000000	-63.02141200000000	714.92999999999995	39.41859900000000	0.09749100000000	0.00000000000000	0.10068500000000	1.39307400000000	157.92949899999999	18.35109600000000	0.39192300000000	0.00000000000000	-0.08136900000000	0.00000000000000	19.49957400000000	0.00000000000000	0.00000000000000	15.17275600000000	0.00000000000000	
22.76490900000000	-63.94043500000000	710.39740099999995	38.88136800000000	0.09659500000000	0.00000000000000	0.10055100000000	2.37188900000000	163.87226699999999	17.98385400000000	0.39223700000000	0.00000000000000	-0.08181900000000	0.00000000000000	19.50260100000000	0.00000000000000	0.00000000000000	15.07369600000000	0.00000000000000	
22.76657600000000	-64.85909500000000	705.73125100000004	38.32915300000000	0.09569700000000	0.00000000000000	0.10041600000000	3.38890300000000	169.89349799999999	17.56354100000000	0.39250700000000	0.00000000000000	-0.08226100000000	0.00000000000000	19.50548700000000	0.00000000000000	0.00000000000000	14.93943800000000	0.00000000000000	
22.76824700000000	-65.77548000000000	700.92993600000000	37.76228200000000	0.09479800000000	0.00000000000000	0.10027900000000	4.44479100000000	175.98315400000001	17.08773800000000	0.39273800000000	0.00000000000000	-0.08269400000000	0.00000000000000	19.50798400000000	0.00000000000000	0.00000000000000	14.76828900000000	0.00000000000000	
